<svg width="436" height="436" viewBox="0 0 436 436" fill="none" xmlns="http://www.w3.org/2000/svg">
  <g clip-path="url(#clip0_63_107)">
    <path d="M309 18.9999C310.041 19.4811 310.041 19.4811 311.102 19.972C342.172 34.4619 370.32 56.8583 390.807 84.3964C391.905 85.8727 393.022 87.3354 394.141 88.7968C418.729 121.517 434.859 164.21 435.238 205.308C435.248 206.184 435.258 207.06 435.268 207.963C435.436 227.009 435.322 245.35 431 264C430.818 264.827 430.636 265.653 430.449 266.505C422.878 300.368 407.171 333.036 384 359C383.129 359.98 382.257 360.959 381.359 361.969C350.286 396.524 310.496 420.755 265 431C263.6 431.317 263.6 431.317 262.171 431.641C227.181 439.164 190.26 436.31 156 427C156 424 156 424 157.294 422.701C157.894 422.271 158.495 421.841 159.113 421.398C159.779 420.913 160.444 420.428 161.13 419.928C161.85 419.415 162.57 418.903 163.312 418.375C164.795 417.289 166.277 416.202 167.758 415.113C168.486 414.58 169.215 414.047 169.966 413.498C192.994 396.534 207.713 374.724 223 351C224.05 349.378 225.101 347.757 226.152 346.137C228.774 342.095 231.388 338.048 234 334C245.717 315.846 245.717 315.846 251 308C257.882 308.581 264.596 309.563 271.379 310.848C305.197 317.059 334.22 321.636 366 306C366.625 305.696 367.25 305.392 367.894 305.079C375.341 301.421 381.894 298.179 385 290C385.429 287.227 385.429 287.227 385.437 284.25C385.477 283.265 385.517 282.28 385.559 281.266C384.221 273.447 378.776 268.408 372.875 263.562C372.212 263.003 371.549 262.444 370.866 261.868C368.92 260.232 366.963 258.613 365 257C364.02 256.192 363.041 255.383 362.031 254.551C360.273 253.111 358.512 251.676 356.746 250.246C352.044 246.4 347.413 242.464 342.831 238.476C340.973 236.925 340.973 236.925 338.692 235.512C329.67 229.339 326.252 220.646 321.875 211C321.123 209.388 320.37 207.777 319.613 206.168C318.125 202.995 316.646 199.819 315.173 196.639C313.064 192.111 310.885 187.62 308.66 183.148C308.342 182.504 308.023 181.859 307.695 181.194C297.384 160.627 280.525 147.43 261.025 136.302C257.715 134.405 254.42 132.484 251.125 130.562C250.067 129.966 249.009 129.37 247.92 128.755C240.566 124.451 235.379 119.572 230 113C228.712 111.573 228.712 111.573 227.398 110.117C224.093 106.455 220.8 102.785 217.562 99.0624C213.909 94.8668 210.155 90.7661 206.406 86.6561C203.848 83.8326 201.342 80.9693 198.844 78.0936C196.591 75.5357 194.297 73.0181 192 70.4999C189.116 67.3373 186.248 64.1655 183.437 60.9374C182.893 60.3148 182.349 59.6921 181.789 59.0507C180.426 57.4885 179.068 55.9228 177.711 54.3554C176.919 53.4543 176.128 52.5532 175.312 51.6249C174.587 50.7921 173.861 49.9594 173.113 49.1014C170.226 46.2302 168.144 45.1491 164.125 44.6249C160.128 45.1045 158.095 46.4673 155 48.9999C152.463 52.6255 152.766 56.4051 152.856 60.6549C152.871 62.2431 152.887 63.8313 152.903 65.4195C152.915 66.259 152.927 67.0985 152.939 67.9634C152.996 72.4253 152.995 76.8873 153.006 81.3495C153.023 87.0207 153.057 92.6904 153.147 98.361C153.218 102.95 153.236 107.537 153.218 112.127C153.221 113.87 153.244 115.613 153.287 117.355C153.612 130.967 153.612 130.967 149.612 136.011C146.844 138.295 144.075 140.159 141 142C139.62 143.087 138.254 144.194 136.918 145.336C130.675 150.425 124.414 155.485 118.062 160.437C112.057 165.121 106.181 169.951 100.317 174.808C95.3726 178.894 90.3642 182.883 85.3019 186.821C80.6921 190.421 76.1867 194.138 71.6874 197.875C28.7801 233.364 28.7801 233.364 0.999936 233C0.555356 211.99 0.391752 191.633 4.99994 171C5.27281 169.747 5.27281 169.747 5.55121 168.468C13.1286 134.617 28.8365 101.956 51.9999 75.9999C53.307 74.5303 53.307 74.5303 54.6406 73.0311C85.7138 38.4762 125.504 14.2452 171 3.99988C171.934 3.78815 172.867 3.57642 173.829 3.35828C218.586 -6.26403 267.709 -0.351261 309 18.9999Z" fill="#467FD5"/>
  </g>
  <defs>
    <clipPath id="clip0_63_107">
      <rect width="436" height="436" fill="white"/>
    </clipPath>
  </defs>
</svg>