<svg width="177" height="134" viewBox="0 0 177 134" fill="none" xmlns="http://www.w3.org/2000/svg">
<path d="M68.248 77L80.572 47.633H80.806L93.091 77H88.762L79.558 53.561L82.249 51.806L71.953 77H68.248ZM75.463 66.314H85.954L87.202 69.59H74.371L75.463 66.314ZM108.668 75.518C107.94 76.09 107.069 76.545 106.055 76.883C105.041 77.221 104.027 77.39 103.013 77.39C101.245 77.39 99.6978 77.039 98.3718 76.337C97.0458 75.635 96.0058 74.66 95.2518 73.412C94.5238 72.138 94.1598 70.643 94.1598 68.927C94.1598 67.211 94.5498 65.716 95.3298 64.442C96.1358 63.168 97.1758 62.193 98.4498 61.517C99.7498 60.815 101.141 60.464 102.623 60.464C103.923 60.464 105.08 60.646 106.094 61.01C107.134 61.374 108.018 61.868 108.746 62.492L106.952 64.832C106.484 64.468 105.912 64.143 105.236 63.857C104.56 63.571 103.793 63.428 102.935 63.428C101.999 63.428 101.128 63.675 100.322 64.169C99.5418 64.637 98.9178 65.287 98.4498 66.119C98.0078 66.951 97.7868 67.887 97.7868 68.927C97.7868 69.915 98.0208 70.838 98.4888 71.696C98.9568 72.528 99.6068 73.191 100.439 73.685C101.271 74.153 102.22 74.387 103.286 74.387C103.988 74.387 104.625 74.283 105.197 74.075C105.795 73.867 106.328 73.581 106.796 73.217L108.668 75.518ZM113.35 53.756H116.977V60.932H121.423V63.779H116.977V77H113.35V63.779H110.386V60.932H113.35V53.756ZM129.355 77.624C127.899 77.624 126.69 77.182 125.728 76.298C124.792 75.388 124.298 74.218 124.246 72.788V60.854H127.873V71.501C127.925 72.385 128.172 73.1 128.614 73.646C129.082 74.192 129.81 74.478 130.798 74.504C131.708 74.504 132.514 74.244 133.216 73.724C133.944 73.178 134.529 72.45 134.971 71.54C135.413 70.604 135.634 69.551 135.634 68.381V60.854H139.261V77H135.946L135.634 73.022L135.829 73.724C135.517 74.478 135.036 75.154 134.386 75.752C133.762 76.324 133.021 76.779 132.163 77.117C131.305 77.455 130.369 77.624 129.355 77.624ZM147.213 60.854L147.564 65.534L147.369 64.91C147.785 63.922 148.383 63.09 149.163 62.414C149.969 61.712 150.801 61.179 151.659 60.815C152.543 60.425 153.31 60.23 153.96 60.23L153.765 63.818C152.543 63.74 151.464 63.974 150.528 64.52C149.618 65.066 148.89 65.794 148.344 66.704C147.824 67.614 147.564 68.589 147.564 69.629V77H143.976V60.854H147.213ZM163.406 77.39C161.898 77.39 160.52 77.065 159.272 76.415C158.05 75.765 157.075 74.816 156.347 73.568C155.645 72.294 155.294 70.747 155.294 68.927C155.294 67.133 155.671 65.586 156.425 64.286C157.179 62.96 158.18 61.946 159.428 61.244C160.702 60.542 162.093 60.191 163.601 60.191C165.109 60.191 166.383 60.542 167.423 61.244C168.463 61.92 169.256 62.726 169.802 63.662L169.568 64.286L169.919 60.854H173.273V77H169.646V72.788L170.036 73.724C169.932 73.984 169.698 74.322 169.334 74.738C168.996 75.128 168.528 75.531 167.93 75.947C167.358 76.363 166.695 76.714 165.941 77C165.187 77.26 164.342 77.39 163.406 77.39ZM164.381 74.387C165.291 74.387 166.11 74.218 166.838 73.88C167.566 73.542 168.164 73.074 168.632 72.476C169.126 71.852 169.464 71.111 169.646 70.253V67.094C169.438 66.314 169.074 65.638 168.554 65.066C168.034 64.468 167.41 64.013 166.682 63.701C165.954 63.363 165.148 63.194 164.264 63.194C163.302 63.194 162.418 63.428 161.612 63.896C160.806 64.364 160.156 65.014 159.662 65.846C159.194 66.678 158.96 67.653 158.96 68.771C158.96 69.811 159.207 70.76 159.701 71.618C160.195 72.476 160.858 73.152 161.69 73.646C162.522 74.14 163.419 74.387 164.381 74.387Z" fill="#2B79F7"/>
<path d="M37.5934 43.4463C37.7204 43.5047 37.7204 43.5047 37.8499 43.5642C41.6395 45.3211 45.0728 48.0366 47.5716 51.3756C47.7056 51.5546 47.8419 51.7319 47.9783 51.9091C50.9775 55.8764 52.9448 61.0529 52.9911 66.0361C52.9923 66.1423 52.9935 66.2484 52.9947 66.3579C53.0152 68.6672 53.0014 70.8911 52.4741 73.1523C52.4519 73.2526 52.4298 73.3528 52.4069 73.4561C51.4834 77.562 49.5676 81.5229 46.7414 84.671C46.6351 84.7898 46.5288 84.9086 46.4193 85.031C42.6292 89.2207 37.7758 92.1587 32.2266 93.4009C32.0558 93.4394 32.0558 93.4394 31.8815 93.4787C27.6137 94.3908 23.1104 94.0448 18.9315 92.9159C18.9315 92.5522 18.9315 92.5522 19.0894 92.3946C19.1626 92.3425 19.2358 92.2904 19.3113 92.2368C19.3924 92.1779 19.4736 92.1191 19.5572 92.0585C19.6451 91.9963 19.7329 91.9342 19.8235 91.8702C20.0044 91.7385 20.1851 91.6067 20.3657 91.4747C20.4546 91.4101 20.5434 91.3455 20.635 91.2789C23.4439 89.2219 25.2391 86.5775 27.1037 83.701C27.2318 83.5044 27.36 83.3078 27.4882 83.1113C27.808 82.6213 28.1268 82.1306 28.4454 81.6398C29.8746 79.4386 29.8746 79.4386 30.519 78.4873C31.3584 78.5577 32.1773 78.6768 33.0047 78.8326C37.1296 79.5857 40.6695 80.1407 44.5459 78.2448C44.6221 78.208 44.6984 78.1711 44.777 78.1332C45.6852 77.6896 46.4845 77.2966 46.8634 76.3048C46.9156 75.9686 46.9156 75.9686 46.9167 75.6076C46.9216 75.4882 46.9265 75.3688 46.9315 75.2458C46.7684 74.2978 46.1042 73.6868 45.3845 73.0993C45.3036 73.0315 45.2227 72.9637 45.1394 72.8938C44.9021 72.6955 44.6634 72.4992 44.4239 72.3036C44.3044 72.2056 44.1849 72.1076 44.0618 72.0066C43.8474 71.8321 43.6325 71.6581 43.4172 71.4847C42.8437 71.0184 42.2787 70.5412 41.7199 70.0576C41.4933 69.8695 41.4933 69.8695 41.2151 69.6982C40.1146 68.9498 39.6978 67.8957 39.1638 66.7261C39.0722 66.5307 38.9802 66.3354 38.888 66.1403C38.7064 65.7556 38.526 65.3704 38.3464 64.9849C38.0891 64.4359 37.8234 63.8914 37.552 63.3492C37.5131 63.271 37.4743 63.1928 37.4342 63.1123C36.1766 60.6185 34.1203 59.0183 31.7418 57.6691C31.3381 57.439 30.9362 57.2062 30.5342 56.9732C30.4052 56.9009 30.2762 56.8285 30.1433 56.754C29.2463 56.2322 28.6137 55.6406 27.9576 54.8437C27.8005 54.6707 27.8005 54.6707 27.6402 54.4942C27.2371 54.0501 26.8354 53.6052 26.4405 53.1538C25.9949 52.6451 25.537 52.1479 25.0798 51.6496C24.7678 51.3072 24.4621 50.96 24.1573 50.6114C23.8826 50.3012 23.6027 49.996 23.3226 49.6906C22.9708 49.3072 22.621 48.9226 22.2782 48.5312C22.2118 48.4557 22.1455 48.3802 22.0771 48.3024C21.9109 48.113 21.7452 47.9232 21.5797 47.7331C21.4832 47.6239 21.3866 47.5146 21.2871 47.4021C21.1986 47.3011 21.1101 47.2001 21.0189 47.0961C20.6667 46.748 20.4128 46.6169 19.9226 46.5533C19.4351 46.6115 19.1871 46.7767 18.8096 47.0838C18.5002 47.5234 18.5371 47.9817 18.548 48.4969C18.55 48.6895 18.5519 48.8821 18.5538 49.0746C18.5553 49.1764 18.5567 49.2782 18.5583 49.3831C18.5652 49.9241 18.5651 50.4651 18.5663 51.0061C18.5685 51.6938 18.5726 52.3812 18.5836 53.0688C18.5923 53.6252 18.5944 54.1814 18.5922 54.7379C18.5926 54.9492 18.5954 55.1605 18.6006 55.3718C18.6402 57.0222 18.6402 57.0222 18.1524 57.6339C17.8147 57.9108 17.477 58.1368 17.1019 58.3599C16.9336 58.4918 16.767 58.626 16.6041 58.7644C15.8426 59.3815 15.0789 59.9949 14.3042 60.5955C13.5717 61.1633 12.855 61.749 12.1397 62.3379C11.5366 62.8333 10.9258 63.317 10.3083 63.7944C9.74602 64.2309 9.19648 64.6816 8.64769 65.1347C3.41416 69.4377 3.41416 69.4377 0.0257209 69.3936C-0.0285059 66.8462 -0.0484612 64.3779 0.513613 61.8762C0.546897 61.7242 0.546897 61.7242 0.580853 61.5692C1.50509 57.4648 3.42103 53.5047 6.24635 50.3575C6.40578 50.1793 6.40578 50.1793 6.56843 49.9975C10.3585 45.8078 15.2119 42.8698 20.7611 41.6276C20.875 41.6019 20.9889 41.5762 21.1062 41.5498C26.5653 40.3831 32.557 41.1 37.5934 43.4463Z" fill="#2B79F7"/>
</svg>
