<svg width="65" height="64" viewBox="0 0 65 64" fill="none" xmlns="http://www.w3.org/2000/svg">
<rect x="0.92157" y="0.274536" width="63.7255" height="63.7255" rx="22.9412" fill="#EFEFEF"/>
<g clip-path="url(#clip0_54_66)">
<path d="M15.8906 14.6135L36.3421 13.1029C38.8543 12.8874 39.4997 13.0327 41.0794 14.181L47.6078 18.7801C48.6844 19.571 49.043 19.7865 49.043 20.6477V45.8708C49.043 47.4517 48.469 48.3868 46.4594 48.5294L22.7099 49.9679C21.2019 50.0393 20.4837 49.8238 19.6939 48.8174L14.8864 42.5658C14.0241 41.4152 13.6667 40.554 13.6667 39.5472V17.1268C13.6667 15.8343 14.2407 14.7565 15.8906 14.6135Z" fill="white"/>
<path fill-rule="evenodd" clip-rule="evenodd" d="M36.3421 13.1033L15.8906 14.6138C14.2407 14.7565 13.6667 15.8347 13.6667 17.1268V39.5472C13.6667 40.5537 14.0241 41.4149 14.8864 42.5658L19.6939 48.817C20.4837 49.8234 21.2019 50.0393 22.7099 49.9676L46.4598 48.5298C48.4679 48.3868 49.0433 47.4517 49.0433 45.8712V20.6481C49.0433 19.8312 48.7207 19.5958 47.7708 18.8987L41.0794 14.181C39.5001 13.0327 38.8544 12.8874 36.3421 13.1029V13.1033ZM23.2469 20.2352C21.3076 20.3657 20.8678 20.3953 19.7663 19.4997L16.9662 17.2724C16.6816 16.9841 16.8246 16.6245 17.5417 16.5528L37.2022 15.1161C38.8532 14.972 39.713 15.5475 40.3587 16.0501L43.7306 18.4933C43.8747 18.5661 44.2333 18.9959 43.8019 18.9959L23.4983 20.2182L23.2469 20.2352ZM20.986 45.6557V24.2432C20.986 23.3081 21.2732 22.8768 22.1329 22.8044L45.453 21.439C46.2439 21.3677 46.6013 21.8704 46.6013 22.804V44.0738C46.6013 45.0089 46.4572 45.7999 45.1661 45.8712L22.8503 47.1648C21.5593 47.2362 20.9864 46.8063 20.9864 45.6557H20.986ZM43.0147 25.3912C43.1577 26.0381 43.0147 26.6849 42.3678 26.7588L41.2923 26.9721V42.7813C40.3583 43.284 39.4986 43.5711 38.7801 43.5711C37.6317 43.5711 37.3449 43.2115 36.4848 42.1345L29.4512 31.0684V41.7749L31.6762 42.2786C31.6762 42.2786 31.6762 43.5723 29.881 43.5723L24.932 43.8594C24.7878 43.5711 24.932 42.853 25.4335 42.71L26.726 42.3514V28.1955L24.9323 28.0502C24.7882 27.4034 25.1467 26.4694 26.152 26.3969L31.4622 26.0395L38.7804 37.2486V27.3321L36.915 27.1177C36.7709 26.3256 37.3449 25.7501 38.0619 25.6799L43.0147 25.3912Z" fill="black"/>
</g>
<defs>
<clipPath id="clip0_54_66">
<rect width="36.9608" height="36.9608" fill="white" transform="translate(13.6667 13.0196)"/>
</clipPath>
</defs>
</svg>
