<svg width="64" height="64" viewBox="0 0 64 64" fill="none" xmlns="http://www.w3.org/2000/svg">
<rect width="63.7255" height="63.7255" rx="22.9412" fill="#ECF0FF"/>
<path fill-rule="evenodd" clip-rule="evenodd" d="M15.1645 20.3922C13.1244 20.3922 11.4706 21.9869 11.4706 23.9541V36.2095C11.4706 40.1438 14.7782 43.3333 18.8583 43.3333H36.6656C38.7056 43.3333 40.3594 41.7386 40.3594 39.7715V27.5161C40.3594 23.5816 37.0518 20.3922 32.9717 20.3922H15.1645ZM52.2549 23.6097V40.1151C52.2549 41.4542 50.6793 42.228 49.556 41.4402L44.3081 37.7598C43.4287 37.1431 42.9084 36.158 42.9084 35.1095V28.6153C42.9084 27.5667 43.4287 26.5815 44.3081 25.9648L49.556 22.2845C50.6793 21.4967 52.2549 22.2705 52.2549 23.6097Z" fill="#3B93FF"/>
</svg>
