<svg width="65" height="64" viewBox="0 0 65 64" fill="none" xmlns="http://www.w3.org/2000/svg">
<rect x="0.901978" width="63.7255" height="63.7255" rx="22.9412" fill="#FAF5E8"/>
<g clip-path="url(#clip0_110_58)">
<path d="M41.3231 23.5789L33.7442 22.7368L24.481 23.5789L23.6388 32L24.4809 40.4211L32.902 41.4738L41.3231 40.4211L42.1652 31.7896L41.3231 23.5789Z" fill="white"/>
<path d="M27.9358 36.6442C27.3063 36.2189 26.8705 35.5979 26.6326 34.7768L28.0937 34.1747C28.2263 34.68 28.4578 35.0715 28.7884 35.3494C29.1169 35.6274 29.5169 35.7642 29.9842 35.7642C30.4622 35.7642 30.8727 35.6189 31.2158 35.3283C31.5588 35.0378 31.7316 34.6672 31.7316 34.2189C31.7316 33.76 31.5505 33.3851 31.1884 33.0947C30.8263 32.8043 30.3716 32.6589 29.8284 32.6589H28.9842V31.2126H29.742C30.2094 31.2126 30.6031 31.0864 30.9231 30.8338C31.2431 30.5811 31.4031 30.2358 31.4031 29.7958C31.4031 29.4043 31.2599 29.0926 30.9737 28.859C30.6874 28.6254 30.3252 28.5075 29.8852 28.5075C29.4558 28.5075 29.1146 28.6213 28.862 28.8507C28.6094 29.0802 28.4262 29.3622 28.3105 29.6949L26.8642 29.0928C27.0558 28.5496 27.4074 28.0696 27.9231 27.6549C28.439 27.2402 29.0978 27.0317 29.8978 27.0317C30.4894 27.0317 31.022 27.1454 31.4937 27.3749C31.9652 27.6043 32.3358 27.9222 32.6031 28.3264C32.8705 28.7326 33.0031 29.1875 33.0031 29.6926C33.0031 30.2085 32.879 30.6442 32.6305 31.0021C32.382 31.36 32.0767 31.6336 31.7146 31.8253V31.9115C32.1926 32.1115 32.582 32.4168 32.8894 32.8274C33.1946 33.2379 33.3482 33.7285 33.3482 34.3011C33.3482 34.8738 33.203 35.3853 32.9124 35.8338C32.6218 36.2822 32.2198 36.6358 31.7103 36.8926C31.1988 37.1494 30.6241 37.28 29.9862 37.28C29.2473 37.2821 28.5652 37.0694 27.9358 36.6442Z" fill="#1A73E8"/>
<path d="M36.9019 29.3937L35.3061 30.5537L34.504 29.3369L37.3819 27.2611H38.4851V37.0526H36.9019V29.3937Z" fill="#1A73E8"/>
<path d="M41.3231 48L48.902 40.4211L45.1125 38.7369L41.3231 40.4211L39.6389 44.2105L41.3231 48Z" fill="#EA4335"/>
<path d="M22.7967 44.2106L24.4809 48H41.3229V40.4211H24.4809L22.7967 44.2106Z" fill="#34A853"/>
<path d="M19.4282 16C18.0325 16 16.902 17.1306 16.902 18.5262V40.421L20.6914 42.1051L24.4809 40.421V23.5789H41.3229L43.0071 19.7894L41.3231 16H19.4282Z" fill="#4285F4"/>
<path d="M16.902 40.4211V45.4738C16.902 46.8696 18.0325 48 19.4282 48H24.4809V40.4211H16.902Z" fill="#188038"/>
<path d="M41.3231 23.5789V40.421H48.902V23.5789L45.1126 21.8947L41.3231 23.5789Z" fill="#FBBC04"/>
<path d="M48.902 23.5789V18.5262C48.902 17.1304 47.7714 16 46.3758 16H41.3231V23.5789H48.902Z" fill="#1967D2"/>
</g>
<defs>
<clipPath id="clip0_110_58">
<rect width="32" height="32" fill="white" transform="translate(16.902 16)"/>
</clipPath>
</defs>
</svg>
