<svg width="64" height="64" viewBox="0 0 64 64" fill="none" xmlns="http://www.w3.org/2000/svg">
<rect width="63.7255" height="63.7255" rx="22.9412" fill="#F2F1FF"/>
<path d="M44.7347 19.4287C42.3097 18.2941 39.7167 17.4695 37.0058 17C36.6729 17.6019 36.2839 18.4115 36.0158 19.0556C33.134 18.6222 30.2788 18.6222 27.45 19.0556C27.1819 18.4115 26.7841 17.6019 26.4482 17C23.7344 17.4695 21.1385 18.2972 18.7134 19.4348C13.8221 26.8262 12.4961 34.0341 13.1591 41.1396C16.4033 43.5623 19.5473 45.034 22.6383 45.997C23.4014 44.9467 24.0821 43.8301 24.6684 42.6534C23.5517 42.2291 22.4821 41.7054 21.4714 41.0975C21.7396 40.8988 22.0018 40.6912 22.2552 40.4775C28.4194 43.3607 35.1171 43.3607 41.2077 40.4775C41.464 40.6912 41.7262 40.8988 41.9914 41.0975C40.9778 41.7084 39.9053 42.232 38.7885 42.6564C39.3749 43.8301 40.0526 44.9497 40.8187 46C43.9126 45.037 47.0596 43.5653 50.3038 41.1396C51.0817 32.9025 48.9749 25.7608 44.7347 19.4287ZM25.5082 36.7698C23.6578 36.7698 22.1403 35.0423 22.1403 32.9386C22.1403 30.8349 23.6254 29.1044 25.5082 29.1044C27.3911 29.1044 28.9086 30.8319 28.8762 32.9386C28.8791 35.0423 27.3911 36.7698 25.5082 36.7698ZM37.9546 36.7698C36.1042 36.7698 34.5867 35.0423 34.5867 32.9386C34.5867 30.8349 36.0717 29.1044 37.9546 29.1044C39.8375 29.1044 41.355 30.8319 41.3226 32.9386C41.3226 35.0423 39.8375 36.7698 37.9546 36.7698Z" fill="#5865F2"/>
</svg>
