<svg width="65" height="64" viewBox="0 0 65 64" fill="none" xmlns="http://www.w3.org/2000/svg">
<rect x="0.627441" width="63.7255" height="63.7255" rx="22.9412" fill="#EFEFEF"/>
<g clip-path="url(#clip0_54_66)">
<path d="M17.0281 16.4535L35.6785 15.0759C37.9695 14.8794 38.558 15.0119 39.9986 16.0591L45.9521 20.2531C46.9339 20.9744 47.2609 21.1709 47.2609 21.9563V44.9582C47.2609 46.3998 46.7374 47.2525 44.9048 47.3826L23.2468 48.6945C21.8716 48.7595 21.2167 48.563 20.4964 47.6452L16.1123 41.9442C15.3259 40.8949 15 40.1096 15 39.1914V18.7455C15 17.5668 15.5235 16.5839 17.0281 16.4535Z" fill="white"/>
<path fill-rule="evenodd" clip-rule="evenodd" d="M35.6785 15.0762L17.0281 16.4538C15.5235 16.5839 15 17.5671 15 18.7455V39.1914C15 40.1092 15.3259 40.8946 16.1123 41.9442L20.4964 47.6448C21.2167 48.5627 21.8716 48.7595 23.2468 48.6941L44.9052 47.383C46.7364 47.2525 47.2612 46.3998 47.2612 44.9585V21.9566C47.2612 21.2117 46.967 20.997 46.1007 20.3613L39.9986 16.0591C38.5584 15.0119 37.9695 14.8794 35.6785 15.0759V15.0762ZM23.7366 21.5801C21.968 21.6991 21.5669 21.7261 20.5625 20.9094L18.0089 18.8783C17.7494 18.6154 17.8798 18.2874 18.5337 18.222L36.4629 16.9119C37.9685 16.7804 38.7525 17.3052 39.3413 17.7636L42.4163 19.9916C42.5478 20.058 42.8747 20.45 42.4814 20.45L23.9658 21.5646L23.7366 21.5801ZM21.6748 44.762V25.2352C21.6748 24.3824 21.9367 23.9891 22.7207 23.923L43.987 22.6779C44.7083 22.6129 45.0343 23.0713 45.0343 23.9227V43.3194C45.0343 44.1721 44.9028 44.8934 43.7255 44.9585L23.3749 46.1382C22.1975 46.2033 21.6751 45.8113 21.6751 44.762H21.6748ZM41.7634 26.2821C41.8939 26.8719 41.7634 27.4618 41.1736 27.5292L40.1928 27.7237V42.1407C39.341 42.5991 38.557 42.861 37.9018 42.861C36.8545 42.861 36.593 42.533 35.8086 41.5508L29.3944 31.4593V41.2229L31.4235 41.6823C31.4235 41.6823 31.4235 42.862 29.7864 42.862L25.2732 43.1239C25.1418 42.861 25.2732 42.2061 25.7306 42.0756L26.9093 41.7487V28.8394L25.2735 28.7069C25.1421 28.117 25.469 27.2653 26.3858 27.1992L31.2284 26.8733L37.9021 37.0953V28.052L36.201 27.8565C36.0695 27.1342 36.593 26.6094 37.2469 26.5453L41.7634 26.2821Z" fill="black"/>
</g>
<defs>
<clipPath id="clip0_54_66">
<rect width="33.7058" height="33.7058" fill="white" transform="translate(15 15)"/>
</clipPath>
</defs>
</svg>
