<svg width="65" height="64" viewBox="0 0 65 64" fill="none" xmlns="http://www.w3.org/2000/svg">
<g clip-path="url(#clip0_110_65)">
<rect x="0.725464" width="63.7255" height="63.7255" rx="22.9412" fill="#F3F2FF"/>
<g clip-path="url(#clip1_110_65)">
<path d="M39.5334 27.907H49.0906C49.9935 27.907 50.7255 28.6389 50.7255 29.5419V38.2472C50.7255 41.5657 48.0353 44.2558 44.7168 44.2558H44.6884C41.37 44.2563 38.6794 41.5665 38.679 38.248C38.679 38.2478 38.679 38.2475 38.679 38.2472V28.7614C38.679 28.2895 39.0615 27.907 39.5334 27.907Z" fill="#5059C9"/>
<path d="M45.9929 26.186C48.1314 26.186 49.865 24.4524 49.865 22.3139C49.865 20.1754 48.1314 18.4418 45.9929 18.4418C43.8544 18.4418 42.1208 20.1754 42.1208 22.3139C42.1208 24.4524 43.8544 26.186 45.9929 26.186Z" fill="#5059C9"/>
<path d="M33.9464 26.1861C37.0353 26.1861 39.5394 23.682 39.5394 20.593C39.5394 17.5041 37.0353 15 33.9464 15C30.8574 15 28.3533 17.5041 28.3533 20.593C28.3533 23.682 30.8574 26.1861 33.9464 26.1861Z" fill="#7B83EB"/>
<path d="M41.404 27.907H25.6282C24.7361 27.9291 24.0303 28.6695 24.051 29.5617V39.4906C23.9264 44.8446 28.1623 49.2876 33.5161 49.4186C38.87 49.2876 43.1058 44.8446 42.9813 39.4906V29.5617C43.0019 28.6695 42.2962 27.9291 41.404 27.907Z" fill="#7B83EB"/>
<path opacity="0.1" d="M34.3766 27.907V41.8207C34.3724 42.4588 33.9857 43.032 33.3957 43.2749C33.2079 43.3544 33.006 43.3953 32.802 43.3954H24.8083C24.6964 43.1114 24.5932 42.8275 24.5071 42.5349C24.2059 41.5475 24.0522 40.5211 24.051 39.4889V29.5591C24.0304 28.6683 24.735 27.9291 25.6257 27.907H34.3766Z" fill="black"/>
<path opacity="0.2" d="M33.5162 27.907V42.6812C33.5161 42.8851 33.4752 43.087 33.3957 43.2749C33.1528 43.8649 32.5796 44.2516 31.9415 44.2558H25.2127C25.0664 43.9719 24.9287 43.6879 24.8083 43.3954C24.6878 43.1028 24.5932 42.8275 24.5071 42.5349C24.2059 41.5476 24.0522 40.5211 24.051 39.4889V29.5591C24.0304 28.6683 24.735 27.9291 25.6257 27.907H33.5162Z" fill="black"/>
<path opacity="0.2" d="M33.5162 27.907V40.9602C33.5096 41.8272 32.8084 42.5283 31.9415 42.5349H24.5071C24.2059 41.5476 24.0522 40.5211 24.051 39.4889V29.5591C24.0304 28.6683 24.735 27.9291 25.6257 27.907H33.5162Z" fill="black"/>
<path opacity="0.2" d="M32.6557 27.907V40.9602C32.6491 41.8272 31.948 42.5283 31.081 42.5349H24.5071C24.2059 41.5476 24.0522 40.5211 24.051 39.4889V29.5591C24.0304 28.6683 24.735 27.9291 25.6257 27.907H32.6557Z" fill="black"/>
<path opacity="0.1" d="M34.3766 23.4584V26.1688C34.2303 26.1774 34.0927 26.186 33.9464 26.186C33.8001 26.186 33.6624 26.1774 33.5161 26.1688C33.2257 26.1496 32.9376 26.1035 32.6557 26.0312C30.9132 25.6185 29.4737 24.3965 28.7836 22.7442C28.6649 22.4667 28.5727 22.1786 28.5082 21.8837H32.802C33.6703 21.887 34.3733 22.5901 34.3766 23.4584Z" fill="black"/>
<path opacity="0.2" d="M33.5162 24.3188V26.1688C33.2257 26.1496 32.9377 26.1035 32.6557 26.0312C30.9133 25.6185 29.4737 24.3965 28.7836 22.7442H31.9415C32.8098 22.7475 33.5129 23.4506 33.5162 24.3188Z" fill="black"/>
<path opacity="0.2" d="M33.5162 24.3188V26.1688C33.2257 26.1496 32.9377 26.1035 32.6557 26.0312C30.9133 25.6185 29.4737 24.3965 28.7836 22.7442H31.9415C32.8098 22.7475 33.5129 23.4506 33.5162 24.3188Z" fill="black"/>
<path opacity="0.2" d="M32.6557 24.3189V26.0312C30.9133 25.6185 29.4737 24.3965 28.7836 22.7442H31.0811C31.9494 22.7475 32.6524 23.4506 32.6557 24.3189Z" fill="black"/>
<path d="M15.3027 22.7442H31.0785C31.9495 22.7442 32.6557 23.4504 32.6557 24.3214V40.0972C32.6557 40.9683 31.9495 41.6744 31.0785 41.6744H15.3027C14.4316 41.6744 13.7255 40.9683 13.7255 40.0972V24.3214C13.7255 23.4504 14.4316 22.7442 15.3027 22.7442Z" fill="url(#paint0_linear_110_65)"/>
<path d="M27.3414 28.7485H24.1878V37.3359H22.1787V28.7485H19.0397V27.0826H27.3414V28.7485Z" fill="white"/>
</g>
</g>
<defs>
<linearGradient id="paint0_linear_110_65" x1="17.014" y1="21.5118" x2="29.3671" y2="42.9069" gradientUnits="userSpaceOnUse">
<stop stop-color="#5A62C3"/>
<stop offset="0.5" stop-color="#4D55BD"/>
<stop offset="1" stop-color="#3940AB"/>
</linearGradient>
<clipPath id="clip0_110_65">
<rect x="0.725464" width="63.7255" height="63.7255" rx="22.9412" fill="white"/>
</clipPath>
<clipPath id="clip1_110_65">
<rect width="37" height="34.4186" fill="white" transform="translate(13.7255 15)"/>
</clipPath>
</defs>
</svg>
