<svg width="65" height="64" viewBox="0 0 65 64" fill="none" xmlns="http://www.w3.org/2000/svg">
<rect x="0.450989" width="63.7255" height="63.7255" rx="22.9412" fill="#ECF0FF"/>
<path fill-rule="evenodd" clip-rule="evenodd" d="M15.6155 20.3922C13.5754 20.3922 11.9216 21.9869 11.9216 23.9541V36.2095C11.9216 40.1438 15.2292 43.3333 19.3093 43.3333H37.1166C39.1566 43.3333 40.8104 41.7386 40.8104 39.7715V27.5161C40.8104 23.5816 37.5028 20.3922 33.4227 20.3922H15.6155ZM52.7059 23.6097V40.1151C52.7059 41.4542 51.1303 42.228 50.007 41.4402L44.7591 37.7598C43.8796 37.1431 43.3594 36.158 43.3594 35.1095V28.6153C43.3594 27.5667 43.8796 26.5815 44.7591 25.9648L50.007 22.2845C51.1303 21.4967 52.7059 22.2705 52.7059 23.6097Z" fill="#3B93FF"/>
</svg>
